<svg width="20" height="20" viewBox="0 0 20 20" fill="none" xmlns="http://www.w3.org/2000/svg">
<path d="M10 20C4.477 20 0 15.523 0 10C0 4.477 4.477 0 10 0C15.523 0 20 4.477 20 10C19.994 15.52 15.52 19.994 10 20ZM9.984 18H10C12.121 17.9979 14.1544 17.1535 15.6531 15.6526C17.1518 14.1517 17.9931 12.117 17.992 9.996C17.9909 7.87497 17.1476 5.84116 15.6474 4.34174C14.1473 2.84231 12.113 2 9.992 2C7.87096 2 5.83674 2.84231 4.33656 4.34174C2.83638 5.84116 1.99306 7.87497 1.992 9.996C1.99094 12.117 2.83223 14.1517 4.3309 15.6526C5.82958 17.1535 7.86296 17.9979 9.984 18V18ZM8 15L4 11L5.41 9.59L8 12.17L14.59 5.58L16 7L8 15Z" fill="#FFC700"/>
</svg>
